<svg id="Laag_1" xmlns="http://www.w3.org/2000/svg" viewBox="0 0 1336.59 263.52"><title>message-bubble-arrow</title><path d="M933.24,454.49c5.49-5.85,20.92-11,40.48-18.09,9.87-3.4,21.4-6.43,32.9-10.68,5.86-2,11.93-4,18.15-6l9.45-3c3.15-1,6.15-2.26,9.28-3.37l18.8-6.77,9.47-3.3,4.74-1.63,4.51-1.83c12-4.88,23.81-9.5,34.83-13.62,21.27-9,39.07-16.27,49-18.16,1.16,4.09,4.5,9.15,3.1,12.33-26.28,63.63-65,125.51-113.22,182-1.34,1.56-6.11.54-11.55.81-4.36-16.33,0-29,7.29-40.16,3.77-5.45,7.85-11.28,12.2-16.71s8.66-10.93,12.35-16.53c8-11.43,14.68-24.1,22-37,3.58-6.58,7.51-13,11-20.34s7-14.89,10.87-23l-24.79,8.82c-8.18,2.73-16.51,5-24.45,7.48s-15.74,4.87-23.49,7.08l-23.37,5.77c-7.71,1.81-15,3.94-22.66,5.37l-22.6,4.21-11,2-5.48,1-5.61.7Z" transform="translate(168.33 -368.13)"/><path d="M709.52,586.74l-9.66,1.87c-6.28,1.33-15.66,2.39-27.51,4.22L652.7,595.7l-23.29,2.38c-8.32.73-17.14,1.95-26.5,2.45l-29.47,1.65a1162.86,1162.86,0,0,1-140.74-3,1397.06,1397.06,0,0,1-160.34-23.44C163.94,553.71,58,519.3-20.18,490.07c-39.18-14.41-71.5-27.46-94.11-36.6l-35.44-14.67a14.32,14.32,0,0,0-18.59,7.66c-.72,1.68,30.6,17.25,78.78,38.25s113.43,46.94,180.4,68.95c66.86,22.28,135.41,40.39,188,51.23l18.89,4L315,612c10.84,1.92,20.34,3.73,28.29,5l26.44,3.87,8.49,1.14c5.52.86,13.68,1.64,24.05,2.68,20.73,2.27,50.44,4.86,86.18,6.12l27.89.79c9.64.16,19.62-.17,29.87-.24l15.58-.19c5.26,0,10.57-.52,16-.76l32.89-1.88a1092.36,1092.36,0,0,0,138.56-20.71c46.64-10.24,92.29-24.64,134.1-40.63l30.54-12.46c9.88-4.3,19.32-9,28.63-13.33l13.73-6.48c4.45-2.26,8.72-4.69,13-7l24.58-13.33c7.81-4.39,15-9.16,22-13.39s13.56-8.34,19.69-12.27l30.81-21.78c4.35-2.93,7.95-5.9,11.11-8.46l8-6.48,6.69-5.39a13.82,13.82,0,0,0,1.93-19.81c-.63-.74-6.31,2.6-15.71,9-4.71,3.2-10.34,7.16-16.75,11.76-6.56,4.38-14.19,9-22.33,14.32l-12.7,8.22c-4.31,3-9.21,5.37-14,8.21-9.73,5.43-19.72,11.56-30.45,17.23L948.6,512.67c-11.6,5.34-23.55,10.41-35.39,15.71-47.88,20.18-98,35.16-136.4,44.66L750.28,579l-11.18,2.51-9.7,1.72Z" transform="translate(168.33 -368.13)"/></svg>