<svg id="Laag_1" xmlns="http://www.w3.org/2000/svg" viewBox="0 0 741.76 913.58"><defs><style>.cls-1{fill:#a0b2dd;}.cls-2{fill:#d7def2;}.cls-3{fill:#fff;}.cls-4{fill:#b4c1e4;}.cls-5{fill:#f4a5a7;}.cls-6{fill:#322871;}.cls-7{fill:#ed6a6c;}.cls-8{fill:#412683;}.cls-9{fill:#2595d3;}.cls-10{fill:#439cd6;}.cls-11{fill:#323d8c;}.cls-12{fill:#83d0f5;}.cls-13{fill:#961914;}</style></defs><title>henv-client-highlight-2</title><polygon class="cls-1" points="280.45 848.61 282.41 841.45 284.5 834.25 288.69 819.9 297.1 791.42 314.04 734.51 348.1 620.75 416.47 393.32 416.47 393.32 418.52 386.64 425.56 386.64 515.8 386.64 515.8 386.64 522.76 386.64 524.84 393.18 669.28 848.35 661.25 851 506.76 399.14 515.8 405.68 515.8 405.68 425.56 405.68 434.64 399.01 434.64 399.01 361.22 624.85 324.65 737.8 306.45 794.3 297.41 822.57 292.96 836.62 290.76 843.62 288.64 850.74 280.45 848.61"/><rect class="cls-2" x="208.05" y="31.83" width="533.71" height="397.14"/><rect class="cls-3" x="274.33" y="299.04" width="392.88" height="2.12"/><rect class="cls-3" x="274.33" y="224.88" width="392.88" height="2.12"/><rect class="cls-3" x="274.33" y="147.28" width="392.88" height="2.12"/><polygon class="cls-3" points="674.38 111.86 667.33 92.06 661.11 111.79 657.08 110.51 667.08 78.77 678.36 110.44 674.38 111.86"/><polygon class="cls-4" points="322.19 368.77 319.23 365.75 369.51 316.54 460.98 340.7 517.26 277.76 593.99 288.31 622.07 250.39 669.32 250.39 669.32 254.62 624.21 254.62 595.89 292.85 518.92 282.25 462.4 345.45 370.75 321.24 322.19 368.77"/><path class="cls-4" d="M455.36,392.65,452.09,390l99.67-121,1.62,2.06c23.63,30,59.3,74.45,67,82.14,9.07-11.47,60.2-74.45,66.46-82.16L688,269.6l56.47,31.6,41.8-47.38H821.4v4.23H788.16l-42.8,48.51L689,275c-19,23.45-65,80.11-66.45,82.21l-.6.86-1.14.1c-1.37,0-3.9.18-69.14-82.52Zm163.76-37.86-.06.08Z" transform="translate(-154.19 -58.42)"/><polygon class="cls-4" points="301.45 221 289.15 206.47 365.47 141.84 487.44 191.7 558.92 104.85 634.51 137.62 656.38 116.62 669.57 130.35 638.56 160.12 564.51 128.02 493.22 214.62 368.96 163.83 301.45 221"/><rect class="cls-4" x="493.93" y="403.28" width="58.96" height="2.11" transform="translate(-284.57 445.97) rotate(-46.39)"/><rect class="cls-4" x="522.07" y="406.1" width="50.99" height="2.12" transform="translate(-278.72 466.61) rotate(-46.58)"/><rect class="cls-4" x="546.14" y="408.43" width="43.74" height="2.11" transform="translate(-271.14 496.47) rotate(-47.77)"/><rect class="cls-4" x="568.2" y="410.64" width="37.5" height="2.12" transform="translate(-265.27 516.88) rotate(-48.24)"/><rect class="cls-4" x="577.46" y="381.33" width="116.8" height="2.12" transform="translate(-228.68 538.32) rotate(-47.81)"/><path class="cls-4" d="M619.14,426.71l-.26-1-.6-.87c2.22-1.79,55-61.08,75.1-83.78l1.58,1.4C620.51,426.35,619.55,426.6,619.14,426.71Z" transform="translate(-154.19 -58.42)"/><rect class="cls-4" x="625.73" y="383.99" width="106.68" height="2.12" transform="translate(-208.5 594.11) rotate(-49.59)"/><rect class="cls-4" x="650.11" y="385.42" width="102.61" height="2.11" transform="translate(-200.53 614.8) rotate(-49.84)"/><rect class="cls-4" x="661.57" y="367.25" width="146.75" height="2.12" transform="translate(-165.24 655.27) rotate(-51.46)"/><rect class="cls-4" x="687.82" y="368.04" width="142.09" height="2.12" transform="translate(-148.33 691.6) rotate(-52.77)"/><rect class="cls-4" x="709.7" y="367.25" width="141.17" height="2.11" transform="translate(-127.74 729.68) rotate(-54.38)"/><path class="cls-4" d="M763.32,426.27l-1.76-1.17c.53-.81,56.59-79.45,59-82.79l1.72,1.22C821.68,344.35,764.06,425.16,763.32,426.27Z" transform="translate(-154.19 -58.42)"/><path class="cls-4" d="M783.94,426.68l-.35-1-.68-.8c1.37-1.38,23.25-32.43,37.62-53l1.73,1.22C785.05,426.3,784.35,426.54,783.94,426.68Z" transform="translate(-154.19 -58.42)"/><rect class="cls-4" x="798.52" y="412.19" width="29.64" height="2.12" transform="translate(-130.49 811.75) rotate(-56.99)"/><polygon class="cls-3" points="669.32 371.75 274.32 371.75 274.32 367.52 665.09 367.52 665.09 90.7 669.32 90.7 669.32 371.75"/><rect class="cls-4" x="274.33" y="75.9" width="207.35" height="8.99"/><rect class="cls-4" x="274.33" y="98.02" width="132.06" height="8.99"/><rect class="cls-4" x="274.33" y="157.86" width="25.21" height="9.03"/><rect class="cls-4" x="274.33" y="234.71" width="25.21" height="9.03"/><rect class="cls-4" x="274.33" y="308.31" width="25.21" height="9.03"/><path class="cls-5" d="M218.59,941.87s-15.46,27.76-10,28.69,9.65-4.76,13.22-3.57,21,5.81,33.31,4.89,17.85-6,5.16-10-22.74-6.48-25-12.56-2.25-8.46-2.25-8.46Z" transform="translate(-154.19 -58.42)"/><path class="cls-5" d="M315,941.87S299.54,969.63,305,970.56s9.65-4.76,13.22-3.57,21,5.81,33.31,4.89,17.85-6,5.16-10-22.74-6.48-25-12.56-2.24-8.46-2.24-8.46Z" transform="translate(-154.19 -58.42)"/><path class="cls-6" d="M357.84,505.5s3.52,291.88-25,436.77H311.66S257,496,259.48,481.18,357.84,505.5,357.84,505.5Z" transform="translate(-154.19 -58.42)"/><path class="cls-5" d="M438,424.6s27.2-15.6,25.64-10.84-6.47,7.93-6.47,7.93,24.3-7.39,28.31-4.49-1.12,5.81-4.46,7.4,8.69-1.85,9.81,1.58-11.37,4.5-11.37,4.5,11.06-.8,11.44,2.11-6.09,3.44-9.21,3.7,9.31,1.59,9.22,3.71-17.54,4.93-25.57,5.72-23.16-1.49-33.19-4.4Z" transform="translate(-154.19 -58.42)"/><path class="cls-7" d="M490.91,440.2c0-.72-1.37-1.34-3.11-1.86a31,31,0,0,1-3.63,1.19c-6.61,1.72-18.5,2.58-28.82,2.12-8.58-.38-16.39-1.85-16.79-4.76-.3-2.23,2.73-11,4.16-14.93-2.79,1.53-4.72,2.64-4.72,2.64l-5.85,16.92c10,2.91,25.17,5.2,33.19,4.4S490.83,442.31,490.91,440.2Z" transform="translate(-154.19 -58.42)"/><path class="cls-8" d="M183,505.5s21.86,324.67,31.37,436.77h23.27s51.82-404,51.82-432-53.23-19.57-53.23-19.57Z" transform="translate(-154.19 -58.42)"/><polygon class="cls-9" points="211.14 310.41 287.02 361.15 276.97 385.74 191.57 370.67 211.14 310.41"/><path class="cls-10" d="M282.75,227.72c-29.11-3.05-113.26,15-126.55,113.51-11.1,82.31,27.5,115.62,27.5,115.62s-12,42.3-.71,48.65,172,6.34,174.85,0S410.72,241.11,282.75,227.72Z" transform="translate(-154.19 -58.42)"/><path class="cls-4" d="M320.38,487.26l111.77-33.58,72.78,45.49S378.81,522.68,337,511.58,320.38,487.26,320.38,487.26Z" transform="translate(-154.19 -58.42)"/><path class="cls-5" d="M317,164.62c0-23.76-15.31-43-34.2-43s-34.19,19.25-34.19,43c0,18.49,9.3,34.22,22.33,40.29-4,13-11.66,39-11.4,46.07.35,9.52,14.45,13.75,25.38,12.69s19-8.46,12-25.73c-4.23-10.37-6.17-22.88-7.05-31.24C305.3,202.61,317,185.33,317,164.62Z" transform="translate(-154.19 -58.42)"/><path class="cls-7" d="M313.77,146.59c-5.42-14.73-17.26-25-31-25-18.88,0-34.19,19.25-34.19,43,0,18.49,9.3,34.22,22.33,40.29-4,13-11.66,39-11.4,46.07.28,7.65,9.43,11.87,18.68,12.69q-1.23-.51-2.64-1.05c-18.16-7.06-5.4-33.17-2.12-46.54,2.44-10,5.46-11.28-1.38-14.86-9.73-5.09-9.72-26.91-10-29s4.54-5.11,4.89-15.86,3.7-25.56,20.09-28.2C302.31,125.66,312.51,144.19,313.77,146.59Z" transform="translate(-154.19 -58.42)"/><path class="cls-11" d="M266.71,202.78s-9-6.61-7.23-24.42c0,0-10.92-1.41-7.84-13.74,1.89-7.55,10.36-3.09,10.36-3.09s-4.2-24.36,10.2-34c12.49-8.33,33.38-5,41.71,20,0,0-1.46-6.91,6.21-14.28C326.73,126.9,377,95.7,317,58.42c0,0,4.23,31.2-24.33,35.16s-49.23,9.19-60.81,35.7C219.92,156.51,236,195.64,266.71,202.78Z" transform="translate(-154.19 -58.42)"/><path class="cls-5" d="M310.25,482.59s27,10.39,35.07,9.87,12.69,5.28,5.12,5.64,12.61-.89,5.42,2.29,9.21,5.29-1.72,5.81,9.19,3.92-3.88,5.47c-13.4,1.58-20.45,3.39-46.71-12.5Z" transform="translate(-154.19 -58.42)"/><path class="cls-7" d="M310.25,482.59l-6.7,16.58c26.26,15.89,33.31,14.08,46.71,12.5,5.5-.65,5.12-1.63,3.65-2.58-3.28.08-9.72.19-15.11-.07-7.58-.35-25.38-7-26.44-11.39-.78-3.23,1.55-10,2.8-13.22C312.18,483.33,310.25,482.59,310.25,482.59Z" transform="translate(-154.19 -58.42)"/><path class="cls-12" d="M301,500.23c-70.75,0-117.52-42.17-118-42.6l1.43-1.56c.47.43,47.48,42.89,118.43,42L311,478.5c-7.22-3.82-54.09-29.49-68.35-60.33-15-32.56-21.18-82.31-21.24-82.81l2.1-.25c.06.49,6.15,49.91,21.06,82.17,14.84,32.08,67.73,59.52,68.27,59.79l.87.45-9.46,22.68h-.69Z" transform="translate(-154.19 -58.42)"/><path class="cls-11" d="M260.24,961.83c-6.66-2.15-12.58-3.83-17-5.82a18.62,18.62,0,0,1-5.78,2.65c-5.26,1.53-18.34-1.79-25.4-3.85-3.41,7.38-6.32,15.26-3.47,15.75,5.42.92,9.65-4.76,13.22-3.57s21,5.81,33.31,4.89S272.93,965.93,260.24,961.83Z" transform="translate(-154.19 -58.42)"/><path class="cls-11" d="M356.65,961.83c-7.93-2.56-14.82-4.45-19.43-7-3.64,2.11-9.38,4.49-15.78,3.55s-10.48-2.62-12.78-4c-3.5,7.51-6.61,15.72-3.7,16.22,5.42.92,9.65-4.76,13.22-3.57s21,5.81,33.31,4.89S369.34,965.93,356.65,961.83Z" transform="translate(-154.19 -58.42)"/><path class="cls-13" d="M286,166.63c0-.07-1.83-7.31-6-7.31s-6,7.24-6,7.31l-2.06-.49c.09-.37,2.22-8.93,8.07-8.93s8,8.56,8.07,8.93Z" transform="translate(-154.19 -58.42)"/><path class="cls-13" d="M314.51,165.05c0-.08-1.83-7.32-6-7.32s-6,7.24-6,7.32l-2.05-.5c.09-.36,2.22-8.93,8.07-8.93s8,8.57,8.07,8.93Z" transform="translate(-154.19 -58.42)"/><path class="cls-2" d="M629.1,683.43c-3.39,7.87-60.17-30.93-64-63.72s1-61.33,21.86-64.51,56.25,11.64,57.57,30.67S653.6,626.59,629.1,683.43Z" transform="translate(-154.19 -58.42)"/><path class="cls-4" d="M679.07,672.59s6.32-74,15.1-95.18,33.63-40.18,68.27-29.61,42.57,68.74,21.15,84.61S701.72,653.56,679.07,672.59Z" transform="translate(-154.19 -58.42)"/><path class="cls-4" d="M701.41,763.54s-14.85,0-33.09-20.09-22.48-58.75-3.44-59,37-3.41,42.3,13.51S701.41,763.54,701.41,763.54Z" transform="translate(-154.19 -58.42)"/><path class="cls-2" d="M734.51,756.14c-1.07,3.12,15-74,41.41-90.95s59.23-21.15,75.09,0,12,77.2-20.45,80.37S742.79,731.81,734.51,756.14Z" transform="translate(-154.19 -58.42)"/><path class="cls-4" d="M609.89,779.4c4.23-12.69.24-54.1-10.45-69.35s-25.51-16.79-35.56-6.5-32.25,30.56-10.57,52.68S609.89,779.4,609.89,779.4Z" transform="translate(-154.19 -58.42)"/><path class="cls-4" d="M534.9,683.43c4.74,3.64-16.1-90.15-40.35-115.54s-56-13.74-66,5.29-19.7,58.08,3.63,77.69S516,668.89,534.9,683.43Z" transform="translate(-154.19 -58.42)"/><path class="cls-2" d="M534.9,756.23S501,700.67,468.18,703.55s-53.94,19.8-55,41,7.05,55,40.54,50.76S512.79,739.4,534.9,756.23Z" transform="translate(-154.19 -58.42)"/><path class="cls-4" d="M583.76,867.2l-2.11,0c1.35-81.29-52-193-52.56-194.11l1.91-.92C531.54,673.26,585.12,785.4,583.76,867.2Z" transform="translate(-154.19 -58.42)"/><path class="cls-4" d="M630.14,867.38l-2.08-.4c8.51-44.82.07-182.1,0-183.48l2.12-.13C630.24,684.75,638.7,822.29,630.14,867.38Z" transform="translate(-154.19 -58.42)"/><path class="cls-4" d="M645.58,875.65l-2.11,0c.78-83.78,38-209.48,38.38-210.74l2,.6C683.5,666.75,646.36,792.17,645.58,875.65Z" transform="translate(-154.19 -58.42)"/><path class="cls-4" d="M690.26,875.73l-2.11-.17c5.25-66.16,47.83-124.42,48.26-125l1.7,1.26C737.68,752.39,695.46,810.18,690.26,875.73Z" transform="translate(-154.19 -58.42)"/><path class="cls-4" d="M705.85,809.78l-2.12,0c.76-38.16-3.07-45.36-3.23-45.65l1.81-1.09C702.49,763.27,706.63,770.47,705.85,809.78Z" transform="translate(-154.19 -58.42)"/><path class="cls-4" d="M578.89,827.12c-2.7-39.21-56.87-80.3-57.41-80.71l1.27-1.69a235.3,235.3,0,0,1,28,25.81c13,14.14,28.78,35.4,30.23,56.44Z" transform="translate(-154.19 -58.42)"/><path class="cls-4" d="M633.36,833.45l-2.11-.2c3.13-32.94-26.38-61.79-26.68-62.07l1.47-1.53C606.34,770,636.58,799.5,633.36,833.45Z" transform="translate(-154.19 -58.42)"/><polygon class="cls-11" points="375.85 808.76 561.98 808.76 539.98 883.85 399.12 883.85 375.85 808.76"/><path class="cls-3" d="M534,683.9c-26.21-53.06-80.15-79.89-80.69-80.16l.93-1.9c.55.27,55.12,27.4,81.66,81.12Z" transform="translate(-154.19 -58.42)"/><path class="cls-3" d="M681.74,669.63l-1.9-.93A191,191,0,0,1,725.18,609c14-12.22,24.78-17.68,24.89-17.74l.95,1.89C750.59,593.37,708.48,614.92,681.74,669.63Z" transform="translate(-154.19 -58.42)"/><path class="cls-3" d="M738.25,751.56l-2-.74c8.08-21.87,38.33-40.58,87.49-54.08,1.23-.34,2.3-.64,2.5-.72l.88,1.92a26.44,26.44,0,0,1-2.82.83C775.84,712.1,746.08,730.35,738.25,751.56Z" transform="translate(-154.19 -58.42)"/><path class="cls-3" d="M700.37,761.49c-3.83-20-25.94-50.51-26.16-50.82l1.71-1.25c.92,1.27,22.61,31.19,26.53,51.68Z" transform="translate(-154.19 -58.42)"/><path class="cls-3" d="M628.05,683.59c-4.55-31.37-28.94-90.7-31.27-93.46l1.52-1.48c2.47,2.48,27.33,63.48,31.85,94.63Z" transform="translate(-154.19 -58.42)"/><path class="cls-3" d="M608.94,775.86c-19.24-38.45-38.32-45.09-38.51-45.16l.66-2c.81.26,20.11,7,39.74,46.22Z" transform="translate(-154.19 -58.42)"/><path class="cls-3" d="M441.67,755.5l-.93-1.9a177.57,177.57,0,0,1,31.55-11.22c23.08-5.71,41.39-4.23,52.94,4.28L524,748.37C497.19,728.64,442.23,755.23,441.67,755.5Z" transform="translate(-154.19 -58.42)"/></svg>