<svg id="Laag_1" xmlns="http://www.w3.org/2000/svg" viewBox="0 0 983.93 906.17"><defs><style>.cls-1{fill:#f4a5a7;}.cls-2{fill:#ed6a6c;}.cls-3{fill:#e64425;}.cls-4{fill:#1f4b9b;}.cls-5{fill:#2b52a0;}.cls-6{fill:#eb5a35;}.cls-7{fill:#ee7770;}.cls-8{fill:#323d8c;}.cls-10,.cls-9{fill:#fff;}.cls-10{opacity:0.3;}.cls-11{fill:#e7265a;}.cls-12{fill:#3f509e;}.cls-13{fill:#b4c1e4;}.cls-14{fill:#e83a65;}.cls-15{fill:#ef82a5;}.cls-16{fill:#d7def2;}.cls-17{opacity:0.5;}.cls-18{fill:#eaf0fa;}.cls-19{fill:#961914;}</style></defs><title>henv-client-highlight-1</title><path class="cls-1" d="M369.7,564.7s1.46,36.3,4.94,40.4,3.76-2.16,3.76-2.16.79,6.2,3.6,6.25,1.41-11.34,1.41-11.34,3.57,14.59,6.49,11.25,3.34-10.64,3.34-10.64,1.61,8.91,3.79-1.76-8.77-42.64-8.77-42.64Z" transform="translate(-16.15 -55.95)"/><path class="cls-1" d="M278.55,924.13s-5,18.89-5.38,26.64,7.77-.8,9.17-3.58,19.93,8.73,38.66,6.75S335.56,946,321,943s-30.69-19.29-30.69-21.27S278.55,924.13,278.55,924.13Z" transform="translate(-16.15 -55.95)"/><path class="cls-1" d="M328.45,912.6s-5,30.42-1.4,30.42,5.78-4.47,6.78-5.32S359.77,951,378.88,947c7.57-1.59-20.33-16.7-27.71-21.07s-10.76-13.32-10.76-13.32Z" transform="translate(-16.15 -55.95)"/><path class="cls-2" d="M392.15,566.52c-.74-2.59-1.46-4.95-2.07-6.91l-4.67-4-15.71,9s1.46,36.29,4.94,40.4,3.76-2.16,3.76-2.16.79,6.2,3.6,6.25c.69,0,1.12-.66,1.38-1.68-3.16-10.6-8.71-31-5.88-34.91C379.92,569.21,387.13,567.4,392.15,566.52Z" transform="translate(-16.15 -55.95)"/><polygon class="cls-3" points="358.64 416.89 377.59 503.52 353.43 512.97 332.42 416.71 358.64 416.89"/><path class="cls-4" d="M310.11,481.68l64.06,26.72s1.68,128.81-7.25,211.4-20.65,196.58-20.65,196.58l-23.13-.16s-18.28-272.46-20.6-289.77S310.11,481.68,310.11,481.68Z" transform="translate(-16.15 -55.95)"/><path class="cls-5" d="M237.31,499.23s-4.12,2.42,1,99.54,37.23,328,37.23,328l24.93.17s48.22-418.73,35.82-428.43S237.31,499.23,237.31,499.23Z" transform="translate(-16.15 -55.95)"/><path class="cls-6" d="M303.67,287.83c-22.78-.63-88.59.32-81.61,104.82s7.2,118.91,22.61,120.94,124.32,1.18,129.5-5.19,16.72-94.08,11.3-145.38S351.13,289.15,303.67,287.83Z" transform="translate(-16.15 -55.95)"/><path class="cls-6" d="M375,444s35-3.18,97.92-43.33l-9.47-24.3c-44.39,7.38-77.13,3.31-105-5.54S375,444,375,444Z" transform="translate(-16.15 -55.95)"/><path class="cls-1" d="M347.14,221.14c0-25.12-16.54-45.49-36.95-45.49S273.25,196,273.25,221.14c0,19.64,10.11,36.38,24.27,42.75-2.7,11.07-6.57,30.62-8.21,35-1.92,5.19.64,13.84,18,16.14,15.9,2.11,22.65-3.37,16.07-27.09a221.31,221.31,0,0,1-5.07-22.45C334.8,261,347.14,242.84,347.14,221.14Z" transform="translate(-16.15 -55.95)"/><path class="cls-2" d="M328.88,181.9c-17.31,3.64-43.65,9.67-45.11,11.77-.89,1.28-4.61,7-8.7,13.35a55.51,55.51,0,0,0-1.82,14.12c0,19.64,10.11,36.38,24.27,42.75-2.7,11.07-6.57,30.62-8.21,35-1.92,5.19.64,13.84,18,16.14,5.64.75,10.09.51,13.24-1.12-2.72-.27-6.11-.68-10.35-1.33-15.74-2.4-15.1-9.85-12.07-27.39s2.28-22.35,2.28-22.35c-4.58-1.2-9.88-12.25-11.57-24.27s2.17-13.93,4.58-25.49,12.53-17,30.55-15.83c10.05.66,16.61,4.17,20.71,7.52C341.65,195.14,336,187.08,328.88,181.9Z" transform="translate(-16.15 -55.95)"/><path class="cls-7" d="M385.28,378.72c-1.13-.1-28.08-3-67.12-46-38.07-41.93-55-35.16-55.2-35.08l-.8-1.75c.72-.34,18.18-7.69,57.43,35.54,38.53,42.43,65.59,45.3,65.86,45.32Z" transform="translate(-16.15 -55.95)"/><path class="cls-7" d="M374.25,443.82c-16.8,0-53.22-5.11-95.38-42.37-58-51.23-44-82.77-43.35-84.09l1.75.82c-.15.31-13.89,31.67,42.88,81.83,57,50.38,103.13,41.29,103.6,41.2l.4,1.88A55.17,55.17,0,0,1,374.25,443.82Z" transform="translate(-16.15 -55.95)"/><path class="cls-8" d="M310.19,175.65c-20.4,0-36.94,20.37-36.94,45.49,0,17.5,8,32.68,19.79,40.29,0,0-6.83-12.55-7.26-22.35-.09-2-.13-3.25-.14-4-.64-.56-9-7.73-6.29-14,2.89-6.72,9.42-3.2,9.42-3.2s-.1-24.67,21.42-25.31S333,188.46,343,201.28c.31.39.59.74.87,1C338,186.59,325.14,175.65,310.19,175.65Z" transform="translate(-16.15 -55.95)"/><path class="cls-8" d="M298.12,180.45s-4.95-48.37-52.5-56.06c-53.75-8.69-91.4,14.3-99.26,100.6-1.61,17.62,5.46,42.71-12.53,69.89,0,0,30.84,14.69,32.44,19.49,0,0,20.89-11.53,19.6-30.75,0,0,4.18,23.71-6.75,33,0,0,7.07,6.69,15.42,6.23s28.53-17.11,32.82-77c2.68-37.48,40.71-55.72,50.69-47.08S298.12,180.45,298.12,180.45Z" transform="translate(-16.15 -55.95)"/><path class="cls-1" d="M643.46,909.2s4.93,16.36-9.84,21.88S598.35,943.15,598.35,946s35.21,6.54,45.9,0,7.83-2,12.75,0,12.71-1,9-14-3.69-21.36-3.69-21.36Z" transform="translate(-16.15 -55.95)"/><path class="cls-1" d="M744.44,904.29s4.49,15.93-5,25.14S712,946.37,713.25,949.66s34.45,1.26,42.24-3.65,9.43-1.23,14.76,0,11.89-6.14,4.51-14.93S760,899.39,760,899.39Z" transform="translate(-16.15 -55.95)"/><path class="cls-2" d="M536.84,376.53s-19-17.46-26.35-17.46-16.6,4.87-16.6,4.87,22,15.15,21.47,17.71-11.13-4.32-16.59-3.2S482.38,386.32,487.2,390s43.05,11.05,48.67,7.68Z" transform="translate(-16.15 -55.95)"/><path class="cls-9" d="M302.48,240.86c-7.15,0-13-4.56-13-10.17s5.82-10.18,13-10.18,13,4.56,13,10.18S309.63,240.86,302.48,240.86Zm0-18.43c-6.09,0-11,3.7-11,8.26s4.95,8.25,11,8.25,11-3.7,11-8.25S308.56,222.43,302.48,222.43Z" transform="translate(-16.15 -55.95)"/><path class="cls-9" d="M336.66,237.93c-7.14,0-13-4.56-13-10.17s5.82-10.18,13-10.18,13,4.56,13,10.18S343.81,237.93,336.66,237.93Zm0-18.43c-6.08,0-11,3.7-11,8.26s4.95,8.25,11,8.25,11-3.7,11-8.25S342.75,219.5,336.66,219.5Z" transform="translate(-16.15 -55.95)"/><ellipse class="cls-10" cx="286.33" cy="174.74" rx="12" ry="9.22"/><path class="cls-10" d="M348.67,227.76c0,5.09-5.38,9.21-12,9.21s-12-4.12-12-9.21,5.38-9.22,12-9.22S348.67,222.67,348.67,227.76Z" transform="translate(-16.15 -55.95)"/><path class="cls-9" d="M315.06,231.45l-1.16-1.53c.21-.16,5.32-3.94,11.11-1.7l-.7,1.79C319.54,228.16,315.11,231.42,315.06,231.45Z" transform="translate(-16.15 -55.95)"/><path class="cls-8" d="M321,943a43.42,43.42,0,0,1-13.86-6h0c-2.71,7.54-21.11,3-31.63-.22a102.52,102.52,0,0,0-2.34,14c-.4,7.75,7.77-.8,9.17-3.58s19.93,8.73,38.66,6.75S335.56,946,321,943Z" transform="translate(-16.15 -55.95)"/><path class="cls-8" d="M378.88,947c5.9-1.24-9.71-10.67-20.39-16.85-6.49,4.81-25-1.86-31.83-4.59-1,8.28-1.58,17.47.39,17.47,3.59,0,5.78-4.47,6.78-5.32S359.77,951,378.88,947Z" transform="translate(-16.15 -55.95)"/><path class="cls-11" d="M657.82,359.07l-121,17.46-3.43,21.72s39.74,23,99.37,23.43S657.82,359.07,657.82,359.07Z" transform="translate(-16.15 -55.95)"/><path class="cls-1" d="M464.46,379s16.64-17.86,38.16-15S528,380.64,527,380.35s-5.46-2.59-5.46-2.59,6.69,4.21,5.59,6.14-8.49-1.61-8.49-1.61,10.61,8,5.79,7.69l-4.82-.32s-16.06-13.18-22.17-9.31-1.6,7.09-10.28,9.64a101.76,101.76,0,0,0-16.06,6.4Z" transform="translate(-16.15 -55.95)"/><path class="cls-8" d="M647.83,481.68S610.24,664.87,616,745.6s22.17,167,22.17,167h27s7.67-164.68,22.14-221.48,55.47-209.44,55.47-209.44Z" transform="translate(-16.15 -55.95)"/><path class="cls-12" d="M687.31,503.15s40.84,383.74,51.28,402h28.74s32.77-405.78,30.84-423.47S687.31,503.15,687.31,503.15Z" transform="translate(-16.15 -55.95)"/><path class="cls-13" d="M705.33,527.51c2.89,0,156.13-19.23,156.13-19.23l17.35,107.65L720.75,637.56Z" transform="translate(-16.15 -55.95)"/><path class="cls-1" d="M788.53,580.61s-16.7,23.71-19.27,29.47,4.5,3.85,5.78,3.21-9,11.21-3.21,13.77l5.78,2.57s.64.32,6.75,0,6.74,2.56,10.28-3.21S804,588.94,804,585.74,788.53,580.61,788.53,580.61Z" transform="translate(-16.15 -55.95)"/><path class="cls-2" d="M794.64,626.42c3.53-5.76,9.31-37.48,9.31-40.68s-15.42-5.13-15.42-5.13-1.47,2.1-3.61,5.19c5.62.41,14.5,2.34,13.33,10.51-1.68,11.85-1.68,31.4-13.89,33.32C790.46,629.31,791.1,632.19,794.64,626.42Z" transform="translate(-16.15 -55.95)"/><path class="cls-14" d="M642,491.54C636.87,485,624.36,350.28,644,311.17c16.06-32,40.48-57.91,86.74-56.71,48,1.25,92.52,17.94,114.36,131.36s-39.19,199.92-39.19,199.92l-19.27-3.37s7.71-63.91,6.42-90.83c0,0,1.29,14.1-57.18,12.82S651.68,503.72,642,491.54Z" transform="translate(-16.15 -55.95)"/><path class="cls-1" d="M731.58,222.43c9.78-6.5,16.48-19.6,16.48-34.73,0-21.59-13.6-39.09-30.38-39.09s-30.37,17.5-30.37,39.09c0,17.8,9.26,32.8,21.91,37.52-1.54,9.37-4.54,25.82-5,34.37-1,17.85,40.62,12.92,38.64.32C741.61,252,735.9,234.8,731.58,222.43Z" transform="translate(-16.15 -55.95)"/><path class="cls-2" d="M748.06,187.7c0-21.59-13.6-39.09-30.38-39.09-12.1,0-22.51,9.13-27.4,22.31,9.55-3,22.44-5.47,29.71-2.48,15.18,6.25,12.48,23.56,12.48,23.56a22,22,0,0,1-3,24.4c-6.21,7.43-11.77,9.11-11.77,9.11s10.38-3.13,14,7.81c4.4,13.29,11.23,31.72-8.12,33.16-7.29.54-12.52.67-16.21.63,9.5,8.29,37.13,3.13,35.51-7.2-1.24-7.89-7-25.11-11.27-37.48C741.36,215.93,748.06,202.83,748.06,187.7Z" transform="translate(-16.15 -55.95)"/><path class="cls-5" d="M733.81,220.82s37.7-34.28,25.17-64.71-34.87-3.85-35.43-26.6,30.93-68.24-26.25-73.36-65.38,91.25-10,109.57c5.81,1.92,7.39,2.56,16.88.32s20.74-8,27.16,3.52,3.78,16.14,3.78,16.14,7.14-3.4,7.79,3.73c.58,6.38-3.46,8.33-7.07,9.61C738.42,206.65,733.81,220.82,733.81,220.82Z" transform="translate(-16.15 -55.95)"/><path class="cls-1" d="M507.92,383.42c-5.78-2.89-9.63-.81-10.92,1.6-1,1.79-5.13,4.82-7.19,6.25,8.75,3.37,33.62,8.05,43.05,7.14l.55-.16s-5.25-3.94-10.55-3.78S513.71,386.3,507.92,383.42Z" transform="translate(-16.15 -55.95)"/><path class="cls-1" d="M498.83,361.73a43.07,43.07,0,0,1,9.37,1.1c6.63,1.68,14.81,9.73,19.09,10.21s9.55,3.49,9.55,3.49-19-17.46-26.35-17.46C506.57,359.07,502.14,360.44,498.83,361.73Z" transform="translate(-16.15 -55.95)"/><path class="cls-15" d="M794,491.69l-1.9-.29c.06-.4,5.93-40.55-5.41-71s-20.85-39.25-20.95-39.34l1.29-1.43c.4.36,10,9.19,21.46,40.1S794.05,491.28,794,491.69Z" transform="translate(-16.15 -55.95)"/><path class="cls-8" d="M666,932c-1-3.54-1.73-6.72-2.27-9.51-6.62,3.3-12.29,4.43-22.36,2.85a16,16,0,0,1-7.77,5.75c-10.14,3.79-23,8.07-30,11.3-3.2,1.75-5.22,3.09-5.22,3.63h0c0,1.16,5.81,2.46,13.43,3.15.59.06,1.18.11,1.79.15,1.21.09,2.46.17,3.72.23,2.54.11,5.15.15,7.74.1s5.14-.2,7.54-.47q1.8-.2,3.48-.48c1.11-.2,2.17-.42,3.16-.68q.75-.19,1.44-.42a16.72,16.72,0,0,0,3.6-1.58h0c10.67-6.53,7.81-2,12.73,0a18.89,18.89,0,0,0,3.73.52C664.93,946.06,668.85,941.94,666,932Z" transform="translate(-16.15 -55.95)"/><path class="cls-8" d="M770.25,946h0a9.47,9.47,0,0,0,3.86-.52c3.82-1.9,6.25-7.74.65-14.41a51,51,0,0,1-6-9.8c-7.37,3-15.16,1.64-24.44.05a19,19,0,0,1-4.84,8.1c-8.41,8.22-23.66,15.25-26,19a1.78,1.78,0,0,0-.25,1.22c.19.52,1.16.9,2.7,1.17.61.1,1.32.19,2.1.26a104,104,0,0,0,17.42-.49c1.19-.12,2.38-.26,3.55-.41,1.76-.22,3.49-.48,5.14-.77,1.09-.2,2.15-.4,3.17-.63a37.87,37.87,0,0,0,6.41-1.89,12.9,12.9,0,0,0,1.75-.89C763.28,941.1,764.92,944.78,770.25,946Z" transform="translate(-16.15 -55.95)"/><path class="cls-13" d="M526.79,787.64l-1.92-.16c2.42-29.59,18.09-39.69,18.75-40.1l1,1.62C544.49,749.1,529.13,759.08,526.79,787.64Z" transform="translate(-16.15 -55.95)"/><rect class="cls-13" x="447" y="728.97" width="76.78" height="177.2"/><path class="cls-16" d="M515.85,745.62s-38.43-144.71,35.71-128-7.45,85.66-18,100.08A267.5,267.5,0,0,0,515.85,745.62Z" transform="translate(-16.15 -55.95)"/><path class="cls-13" d="M536.47,755.39c.45-1.8,14.91-49.59,48.82-35.16s-1.18,52.29-18.9,37.41S536.47,755.39,536.47,755.39Z" transform="translate(-16.15 -55.95)"/><path class="cls-13" d="M484.47,730.39c.35,2.27,32.1-110.3-21.24-122.77s-81.54,45.23-48.91,73.64S481.31,709.65,484.47,730.39Z" transform="translate(-16.15 -55.95)"/><path class="cls-16" d="M478.81,761.26c1.46,1.17-11.09-47.78-35.38-44.18s-33.6,32-10.41,41.93S460.73,746.84,478.81,761.26Z" transform="translate(-16.15 -55.95)"/><path class="cls-13" d="M490.33,784.93H488.4c.3-37.26-10.31-83.84-10.41-84.3l1.88-.43C480,700.66,490.63,747.45,490.33,784.93Z" transform="translate(-16.15 -55.95)"/><path class="cls-16" d="M511.72,785l-1.92-.15c2.39-30.93,11.15-63.94,12.45-66.54l1.73.86C522.7,721.72,514.09,754.3,511.72,785Z" transform="translate(-16.15 -55.95)"/><path class="cls-16" d="M483.19,785c-2.68-29.78-12.3-32.22-12.4-32.24l.36-1.88c.46.08,11.12,2.39,14,34Z" transform="translate(-16.15 -55.95)"/><g class="cls-17"><rect class="cls-9" x="457.18" y="728.97" width="1.93" height="177.2"/></g><g class="cls-17"><rect class="cls-9" x="475.24" y="728.97" width="1.93" height="177.2"/></g><g class="cls-17"><rect class="cls-9" x="493.8" y="728.97" width="1.93" height="177.2"/></g><g class="cls-17"><rect class="cls-9" x="511.88" y="728.97" width="1.93" height="177.2"/></g><path class="cls-16" d="M483.18,727.82c-.38-45.08-46.56-93.91-49.78-96l1-1.63c3.15,2,50.3,51.61,50.69,97.65Z" transform="translate(-16.15 -55.95)"/><path class="cls-16" d="M463.2,668.44l-1.81-1.66c-8.89-8.17-31-10.48-31.19-10.5l.19-1.91c.88.08,20.4,2.13,30.51,9.53-.52-6.29-2-24-2.82-29.78l1.9-.27c1,7.16,3,31.9,3,32.15Z" transform="translate(-16.15 -55.95)"/><path class="cls-16" d="M476.69,694.79l-1.2-1.37c-7.25-8.28-20.13-5.33-20.26-5.3l-.45-1.88c.55-.13,12.82-2.92,20.91,4.63A87.05,87.05,0,0,0,478,674.54l1.93,0A90.6,90.6,0,0,1,477.15,693Z" transform="translate(-16.15 -55.95)"/><path class="cls-13" d="M516.81,745.67l-1.92-.1c4.16-85.37,30.75-100.7,31.88-101.31l.92,1.69C547.42,646.09,520.91,661.63,516.81,745.67Z" transform="translate(-16.15 -55.95)"/><path class="cls-13" d="M528.25,673.72l-.21-1.13c-1.66-9.08-.08-26.82,0-27.57l1.92.17c0,.17-1.49,16.76-.2,25.91l20.15-7.66.68,1.8Z" transform="translate(-16.15 -55.95)"/><path class="cls-13" d="M520.61,701.87l-.43-1.12c-2.35-6-5.16-22-5.28-22.72l1.9-.33c0,.15,2.57,14.65,4.77,21.23,2.65-1.71,9.71-6.14,13.16-7.07l.5,1.86c-3.91,1-13.53,7.42-13.62,7.48Z" transform="translate(-16.15 -55.95)"/><path class="cls-16" d="M540,753.91l-1.45-1.28c.16-.17,15.78-17.42,37.7-15.92l-.13,1.92C555.05,737.16,540.12,753.74,540,753.91Z" transform="translate(-16.15 -55.95)"/><path class="cls-16" d="M568.78,746.23c-3.32-4-12.41-4-12.35-4h-1.86l10.55-15,1.58,1.11-8.48,12c3,.23,9.15,1.12,12,4.62Z" transform="translate(-16.15 -55.95)"/><path class="cls-13" d="M477.93,761.65c-10.15-22.76-42.44-21.42-42.76-21.41l-.1-1.92c.34,0,33.93-1.43,44.62,22.55Z" transform="translate(-16.15 -55.95)"/><path class="cls-13" d="M448.06,750.84l-1.54-1.16c2.86-3.79,8.74-6.08,11.17-6.89-1.63-2.67-6.32-5.29-9-6.76-.9-.51-1.61-.91-2-1.18l1.12-1.57c.34.25,1,.61,1.82,1.07,3.39,1.89,9.06,5.06,10.28,8.72l.31,1-1,.27C459.21,744.32,451.25,746.61,448.06,750.84Z" transform="translate(-16.15 -55.95)"/><rect class="cls-13" x="379.35" y="17.82" width="188.72" height="130.71" rx="12" ry="12"/><rect class="cls-16" x="429.62" y="179.72" width="171.3" height="65.54" rx="7.16" ry="7.16"/><polygon class="cls-13" points="385.36 121.33 364.77 151.45 408.49 144.4 385.36 121.33"/><polygon class="cls-16" points="577.83 183.39 624.01 163.09 595.17 206.73 577.83 183.39"/><ellipse class="cls-13" cx="478.52" cy="211.78" rx="8.7" ry="8.68"/><path class="cls-13" d="M537.69,267.73a8.7,8.7,0,1,1-8.7-8.68A8.69,8.69,0,0,1,537.69,267.73Z" transform="translate(-16.15 -55.95)"/><ellipse class="cls-13" cx="547.17" cy="211.78" rx="8.7" ry="8.68"/><rect class="cls-18" x="406.34" y="51.94" width="135.98" height="9.19"/><rect class="cls-18" x="406.34" y="75.69" width="135.98" height="9.19"/><rect class="cls-18" x="406.34" y="100.77" width="96.73" height="9.19"/><path class="cls-16" d="M16.15,408.5s92.52,62.15,98.94,95.76l41.12-29.19S97.1,349.23,76.54,335.9Z" transform="translate(-16.15 -55.95)"/><polygon class="cls-13" points="52.08 376.36 49.34 373.65 83.3 339.53 86.03 342.24 52.08 376.36"/><polygon class="cls-13" points="36.37 362.26 33.63 359.55 67.59 325.43 70.32 328.14 36.37 362.26"/><polygon class="cls-13" points="66.04 387.37 63.3 384.66 92.99 354.82 95.73 357.53 66.04 387.37"/><polygon class="cls-13" points="77.48 402.44 74.74 399.74 102.32 372.03 105.05 374.74 77.48 402.44"/><polygon class="cls-13" points="89.93 417.67 87.19 414.96 114.47 387.55 117.2 390.26 89.93 417.67"/><path class="cls-16" d="M842.55,88.68s-16.71,142-15.42,163.83L892.66,263s24.42-111.24,54-150.53C946.63,112.43,854.11,85,842.55,88.68Z" transform="translate(-16.15 -55.95)"/><rect class="cls-13" x="879.13" y="100.57" width="3.85" height="55" transform="translate(569.75 912.09) rotate(-78.91)"/><rect class="cls-13" x="874.02" y="125.91" width="3.85" height="53.1" transform="translate(557.75 932.75) rotate(-80.01)"/><rect class="cls-13" x="869.29" y="153.25" width="3.85" height="43.51" transform="translate(528.84 945.62) rotate(-79.82)"/><polygon class="cls-13" points="870.34 147.7 829.86 140.17 830.57 136.39 871.05 143.92 870.34 147.7"/><polygon class="cls-13" points="863.32 172.38 827.17 166.61 827.78 162.81 863.93 168.58 863.32 172.38"/><path class="cls-16" d="M937.24,380.31s-13.62,20-35.14,95.86c0,0,18.31,1.06,24.73,15.41,0,0,41.12-84.33,73.25-86.89Z" transform="translate(-16.15 -55.95)"/><polygon class="cls-13" points="949.02 358.25 919.79 347.04 921.17 343.45 950.41 354.67 949.02 358.25"/><polygon class="cls-13" points="940.34 371.39 913.04 360.81 914.43 357.23 941.74 367.8 940.34 371.39"/><polygon class="cls-13" points="931.71 385.18 907.94 376.53 909.26 372.92 933.03 381.56 931.71 385.18"/><polygon class="cls-13" points="922.13 398.01 902.53 391.61 903.74 387.95 923.33 394.36 922.13 398.01"/><polygon class="cls-13" points="913.09 412.42 896.71 406.65 897.99 403.02 914.38 408.79 913.09 412.42"/><path class="cls-19" d="M701.33,193.72c0-.06-1-5.46-4.35-5.46-2.93,0-4.35,3.81-4.82,5.44l-1-.15-.92-.3.92.3-.92-.3c1.28-4.42,3.71-6.91,6.7-6.91,5,0,6.2,6.76,6.25,7Z" transform="translate(-16.15 -55.95)"/><path class="cls-19" d="M723.76,194.45c0-.06-1-5.46-4.35-5.46-2.93,0-4.35,3.81-4.82,5.44l-1-.15-.92-.3.92.3-.92-.3c1.28-4.42,3.72-6.91,6.7-6.91,5,0,6.2,6.76,6.25,7.05Z" transform="translate(-16.15 -55.95)"/></svg>