<svg id="Laag_1" xmlns="http://www.w3.org/2000/svg" viewBox="0 0 904.75 880.17"><defs><style>.cls-1{fill:#d7def2;}.cls-2{fill:#b4c1e4;}.cls-3{fill:#f4a5a7;}.cls-4{fill:#2e286d;}.cls-5{fill:#1d4c9c;}.cls-6{fill:#2b52a0;}.cls-7{fill:#6256a1;}.cls-8{fill:#ed6a6c;}.cls-9{fill:#9085bf;}.cls-10{fill:#242b5a;}.cls-11,.cls-12{fill:#fff;}.cls-12{opacity:0.3;}.cls-13{fill:#a0b2dd;}.cls-14{fill:#bccae9;}.cls-15{opacity:0.5;}</style></defs><title>henv-client-highlight-4</title><path class="cls-1" d="M267.13,164c-1.13,1.74,3.75-17.17-6.41-26.14s-27.64-20.61-22.36-26.83,12.57-18.46,12.71-14.65-4.42,15.81-3.21,19.74,5.2,4.64,13.54,12.86S275.92,150.51,267.13,164Z" transform="translate(-26.98 -69.47)"/><path class="cls-1" d="M277,162.5s8.36-9.91,0-25S260.51,125.87,263.74,111s11-13.23,5.62-25.37-2.92-16.19-2.92-16.19,19.16,8.63,16.19,19.7-11.21,13.76-9.65,23.75,8.93,5.66,10,21S290.19,150,277,162.5Z" transform="translate(-26.98 -69.47)"/><path class="cls-1" d="M293.16,161.22c.81-3,3.24-21.05-2.43-35.35s-9.45-12.41-3-22.67,16.1-18.89,15.2-15.92-11.7,7.83-9.27,20,5.68,7.47,5.41,22.22-1.09,22.07-3.24,25.39A19.35,19.35,0,0,0,293.16,161.22Z" transform="translate(-26.98 -69.47)"/><polygon class="cls-1" points="370.98 623.67 380.31 861.87 388.43 861.87 390.41 627.99 370.98 623.67"/><polygon class="cls-1" points="589.93 600.75 605.4 838.95 614.4 838.95 609.37 605.07 589.93 600.75"/><path class="cls-1" d="M378.3,653s-73,48.78-57.88,240.93H328s-4.88-70.9,9.54-133.14c16.73-72.23,49.83-96.25,49.83-96.25Z" transform="translate(-26.98 -69.47)"/><path class="cls-2" d="M361.26,462.13s8.63,87.56-2.88,116.82-17.27,35-15.83,55.18,66.92,66.2,66.92,66.2l259.82-2.88S549.34,531.92,539.14,490.55,361.26,462.13,361.26,462.13Z" transform="translate(-26.98 -69.47)"/><circle class="cls-2" cx="816.8" cy="226.25" r="72.46" transform="translate(52.27 574.36) rotate(-45)"/><circle class="cls-1" cx="816.8" cy="226.25" r="61.82" transform="translate(52.27 574.36) rotate(-45)"/><rect class="cls-2" x="785.31" y="105.27" width="4.5" height="51.51"/><rect class="cls-2" x="811.58" y="229.86" width="43.89" height="5.25" transform="translate(1551.49 603.32) rotate(-165)"/><path class="cls-3" d="M550.22,899.18s-2.66,17.31-3.66,24,5.15,3.33,11.89,9,30.38,19.3,38.7,17.31,4-10.13-13-25-17.64-26.89-17.64-26.89Z" transform="translate(-26.98 -69.47)"/><path class="cls-3" d="M452.46,843.18c-.3.9-14.32,11.65-17.31,12.54s.3,11.64,6.27,11.64,2.39,15.82,8.95,28.66,34.33,12.83,32.84,7.46-3.58-9-9.55-9.85S462,884.19,462,875s3.89-13.94,3.89-13.94Z" transform="translate(-26.98 -69.47)"/><path class="cls-4" d="M560.06,246.73c-2.45-4.68-20.92-18.2-20.92-62.57,0-38.32,22.54-45.87,47.91-54s54-36.7,56.13-54.51c0,0,62.1,48.94,35.08,85.52-31.3,42.39-36.38-.32-52.46,70.42Z" transform="translate(-26.98 -69.47)"/><path class="cls-5" d="M622.49,580.87s87.8,90.68,36,159.76-190,125.22-190,125.22L444,831.31S561.13,732,559.43,688.82s-75.11-89.24-75.11-89.24L474.24,555Z" transform="translate(-26.98 -69.47)"/><path class="cls-6" d="M405.15,580.87s-31.66,48.94,17.28,103.63-1.44,14.39,48.93,108S545.49,900.4,545.49,900.4h28.06s-31.93-133.49-34.41-179.92c-3.85-72-36.23-130.59-36.23-130.59Z" transform="translate(-26.98 -69.47)"/><path class="cls-1" d="M395.08,573.58c-41.47,0-72-23.3-72-54.71s33.74-57,75.21-57c1.06,0,2.72,0,3.77.07-2.64-7.11-5.34-14.55-7.56-22.33-51.83,1.43-93,36.81-93,79.23,0,43.31,43.43,78.55,96.8,78.55,3,0-3,.23,0,0C397.54,590.28,397.67,573.58,395.08,573.58Z" transform="translate(-26.98 -69.47)"/><path class="cls-7" d="M417.39,503.15S362.7,429,408,355.62s103.27-84.92,152-80.6,127.2,41,120,143.93-72.68,117.3-72.68,117.3S633,569,622.49,580.87c-22,24.83-212.3,0-217.34,0S395.8,573,417.39,503.15Z" transform="translate(-26.98 -69.47)"/><path class="cls-3" d="M562,530.14c1.08-2.52-2.88-19.08,14.75-18s27.71,10.44,27.71,10.44,3.24,5.4-17.27,7.56S562,530.14,562,530.14Z" transform="translate(-26.98 -69.47)"/><path class="cls-8" d="M569,526.09c-8.91-1.62,1.49-13.4,1.49-13.4h0C560.21,515.54,563,528,562,530.14c0,0,4.68,2.15,25.19,0,17.33-1.83,17.7-6,17.4-7.2l-.13-.36S577.87,527.71,569,526.09Z" transform="translate(-26.98 -69.47)"/><path class="cls-3" d="M598,163.68c-20.88-2.93-40.94,17.14-44.82,44.82l-.09.72c-.12,0-.23-.05-.36-.05-4,0-7.28,4.62-7.28,10.31s3.26,10.32,7.28,10.32a5.51,5.51,0,0,0,.92-.13c2.15,11.09,7.25,20.59,14.39,26.8-5,8.88-21.17,37.2-26.91,44.46-6.84,8.63,4,32.74,26.63,29.14S591.64,313.3,591,288.69c-.3-11.72-.28-19.58-.19-24.65,18.26-1.72,34.54-20.31,38-45C632.69,191.41,618.91,166.6,598,163.68Z" transform="translate(-26.98 -69.47)"/><path class="cls-9" d="M500.2,538.37c-29.17,0-49.79-8.69-62.23-16.29-14.51-8.84-21.18-17.92-21.46-18.3l1.75-1.27c.27.37,27.05,36.21,88.32,33.56,39-1.68,51.7-5.63,54.38-6.65v-19.5c-41.68-3.52-93.22-52.4-97.8-57.89l1.66-1.39c4.55,5.47,56.17,54.45,97.29,57.2l1,.07v22.88l-.58.3c-.4.21-10.35,5.18-55.87,7.14C504.47,538.33,502.31,538.37,500.2,538.37Z" transform="translate(-26.98 -69.47)"/><path class="cls-8" d="M598,163.68c-20.88-2.93-40.94,17.14-44.82,44.82l-.09.72c-.12,0-.23-.05-.36-.05-4,0-7.28,4.62-7.28,10.31s3.26,10.32,7.28,10.32a5.51,5.51,0,0,0,.92-.13c2.15,11.09,7.25,20.59,14.39,26.8-5,8.88-21.17,37.2-26.91,44.46-5.89,7.44,1.31,26.34,17.92,29.14-22.2-8.21-9.48-30.5,2-49.29C572.79,261.71,584,263.91,584,263.91c-12.23-3.2-31.22-34.11-18.86-61.94s24.62-34.18,46.87-32.44A30,30,0,0,0,598,163.68Z" transform="translate(-26.98 -69.47)"/><path class="cls-3" d="M518.5,483s-31.3-1.8-42.82,11.87-2.88,9.72,0,7.2-4,6.12,0,6.48,8.64-5.76,8.64-5.76-6.12,4.35-2.52,5.77,9-5.41,9-5.41-2.16,6.9.72,5.61,9.72-11.44,20.15-12.84S526.06,487.32,518.5,483Z" transform="translate(-26.98 -69.47)"/><path class="cls-8" d="M518.5,483s-31.3-1.8-42.82,11.87-2.88,9.72,0,7.2c9.27-9.45,32.3-16.73,40.12-15.92,3.57.37,4.88,2.87,5.27,5.49C523.37,488.9,522.84,485.48,518.5,483Z" transform="translate(-26.98 -69.47)"/><path class="cls-10" d="M584.17,924.41c-2-1.75-3.74-3.46-5.31-5.11,0,2.91-1.3,5.28-5.31,5.38-7.91.21-19.32-9.49-24.95-14.94-.75,4.9-1.58,10.31-2,13.41-1,6.66,5.15,3.33,11.89,9s30.38,19.3,38.7,17.31S601.15,939.32,584.17,924.41Z" transform="translate(-26.98 -69.47)"/><path class="cls-10" d="M473.66,893.63c-4.83-.72-9.45-6.45-11.05-13.45h0c-13.44,1.38-7.08-10-14.28-19-3.6-4.51-4.05-8.66-3.59-11.67-3.9,2.89-8.11,5.77-9.59,6.21-3,.9.3,11.64,6.27,11.64s2.39,15.82,8.95,28.66,34.33,12.83,32.84,7.46S479.63,894.53,473.66,893.63Z" transform="translate(-26.98 -69.47)"/><path class="cls-9" d="M523.12,495.64l-2.16-.12.38-6.74a10.09,10.09,0,0,0-4.73-9l1.07-1.87c.25.14,24.78,13.54,58.37-2.73,17.47-8.46,25.69-25.23,29.51-37.81a97.66,97.66,0,0,0,4.16-25.71h2.15c0,.48-.12,48.64-34.88,65.47-25.57,12.39-46.13,8-55.26,4.83a11.61,11.61,0,0,1,1.77,7Z" transform="translate(-26.98 -69.47)"/><path class="cls-11" d="M569.86,227.33c-9.63,0-17.18-4.86-17.18-11.06s7.55-11.07,17.18-11.07,17.19,4.86,17.19,11.07S579.5,227.33,569.86,227.33Zm0-20c-8.28,0-15,4-15,8.91s6.74,8.9,15,8.9,15-4,15-8.9S578.15,207.36,569.86,207.36Z" transform="translate(-26.98 -69.47)"/><path class="cls-11" d="M613.32,227.33c-9.64,0-17.18-4.86-17.18-11.06s7.54-11.07,17.18-11.07,17.18,4.86,17.18,11.07S623,227.33,613.32,227.33Zm0-20c-8.28,0-15,4-15,8.91s6.74,8.9,15,8.9,15-4,15-8.9S621.6,207.36,613.32,207.36Z" transform="translate(-26.98 -69.47)"/><path class="cls-12" d="M586,216.27c0,5.51-7.21,10-16.1,10s-16.11-4.47-16.11-10,7.21-10,16.11-10S586,210.75,586,216.27Z" transform="translate(-26.98 -69.47)"/><path class="cls-12" d="M629.42,216.27c0,5.51-7.21,10-16.1,10s-16.1-4.47-16.1-10,7.21-10,16.1-10S629.42,210.75,629.42,216.27Z" transform="translate(-26.98 -69.47)"/><path class="cls-11" d="M586.72,217l-1.51-1.54a10.64,10.64,0,0,1,6.95-2.91,8.1,8.1,0,0,1,5.86,2.95l-1.6,1.45a6.09,6.09,0,0,0-4.31-2.25A8.61,8.61,0,0,0,586.72,217Z" transform="translate(-26.98 -69.47)"/><rect class="cls-13" x="436.26" y="467.14" width="468.49" height="14.39"/><rect class="cls-1" x="603.22" y="481.54" width="134.57" height="15.11"/><rect class="cls-2" x="642.31" y="496.65" width="56.39" height="28.07"/><rect class="cls-1" x="657.37" y="524.72" width="26.27" height="338.06"/><rect class="cls-2" x="625.53" y="862.78" width="89.96" height="7.05"/><rect class="cls-14" x="535.06" y="456.36" width="254.76" height="11.15"/><polygon class="cls-14" points="670.5 337.64 633.65 460.35 789.81 460.35 829.09 337.64 670.5 337.64"/><path class="cls-13" d="M877,506.57c-.3-2.7-26-57,5.09-56.5s3.05,56.5,3.05,56.5Z" transform="translate(-26.98 -69.47)"/><path class="cls-13" d="M890.73,474.39s8.08-20.35,17.65-15.86S905.69,477.39,890.73,474.39Z" transform="translate(-26.98 -69.47)"/><path class="cls-13" d="M871,478.32s-10.47-12-14.06-7.52,3.59,13.27,15.56,11.57S871,478.32,871,478.32Z" transform="translate(-26.98 -69.47)"/><polygon class="cls-1" points="832.99 431.52 840.91 467.14 867.53 467.14 877.76 431.52 832.99 431.52"/><rect class="cls-2" x="207.61" y="170.29" width="222.68" height="6.48"/><rect class="cls-14" x="228.48" y="84.4" width="47.5" height="85.89"/><rect class="cls-11" x="388.95" y="46.52" width="19.81" height="123.77"/><rect class="cls-1" x="292.82" y="67.38" width="80.9" height="102.91"/><rect class="cls-2" x="304.14" y="76.76" width="58.27" height="84.15"/><path class="cls-1" d="M371.37,176.27c0,6-5.38,10.83-12,10.83s-12-4.85-12-10.83,5.39-10.82,12-10.82S371.37,170.3,371.37,176.27Z" transform="translate(-26.98 -69.47)"/><path class="cls-1" d="M347.33,219s1.24-31.85,12-31.85S372.91,219,372.91,219Z" transform="translate(-26.98 -69.47)"/><path class="cls-11" d="M247.15,674.54s11.32-21,3.58-44.29c0,0-9.15,15.3-19.89,11.92s.38-17.54,18.65-16c0,0,1.2-18.31-6-31.17,0,0-6.46,12.46-12,7.46s12.44-12,12.44-12-5-14.11-8.26-19.82l-15.07,4.63s1.31,15.1-3.72,13.72,1.72-12.92,1.72-12.92-17.41,1.77-27,5.65c0,0-3.25,4.36-3.63,16.57s-3.53,17.12-9,11.42,6.8-25.75,6.8-25.75-14.55,2.51-35.7,22.61c0,0,15.43,25.51,5.82,28.31s-8.57-23.7-8.57-23.7S132,634.52,134.84,658.7c0,0,8.69.09,13.22,4.78S156,678,145.43,675.21c-7.8-2.09-10.7-11.73-10.7-11.73s-11.49,46.26,33.38,54.9a391.22,391.22,0,0,0-6.58,41.41l1.13,2.28s4.76-36.85,7.89-43.19c0,0,25.78,18.36,50.77-9.23,0,0-8.76,3.1-13-1s7.8-5.18,15.43-1.14c0,0,12.71-2,22.77-28.24,0,0,.44-.65-8.37,2.8s-26.85,2.82-25.53-3C215.22,667.42,247.15,674.54,247.15,674.54Zm-76.83-9.06c-2.78,0-5.21-1.54-7.33-3.23-1.83-1.46-4.36-3.6-4.59-6.13a3,3,0,0,1,2.54-3.35,6.56,6.56,0,0,1,4.1.78,3.87,3.87,0,0,1,1.05.87c2.76,1.64,5.53,4.07,6.57,7C173.23,663,172.36,665.46,170.32,665.48Zm8.08-35.77c-.93,3.42-4.58,5.66-7.52,2.78-2-2-2.63-5.4-2.27-8.14.47-3.52,3.57-6,7-4.21a3.29,3.29,0,0,1,1.75,2.2A9,9,0,0,1,178.4,629.71Zm41.43-15a17,17,0,0,1,8.7-3.37,3.54,3.54,0,0,1,2.35,6,34.88,34.88,0,0,0-4.95,3.38,22.22,22.22,0,0,0-2.55,2.58,6.44,6.44,0,0,1-3.41,2.37,3.34,3.34,0,0,1-3.77-2.4C215.18,620,217.37,616.59,219.83,614.68ZM214.4,660.6a31.73,31.73,0,0,0-3.11,1.29c-1.07.69-1.91,1.75-2.94,2.51-2.28,1.69-5.25,2.52-7.73.66a8.5,8.5,0,0,1-3.1-6.68c0-2.71,1.17-5.32,3.83-6.34,3.06-1.17,6.37.84,9.28-.23a3,3,0,0,1,1-.18,4.46,4.46,0,0,1,2.51.16,4.12,4.12,0,0,1,1.87,1.48,3.2,3.2,0,0,1,.27.25C218.45,656,217,659.28,214.4,660.6Z" transform="translate(-26.98 -69.47)"/><path class="cls-2" d="M78.32,667.06c1.71,7.3-20.79,8.3-31.83,4.11S36,667.79,36,667.79c12.88,32.56,28.76,35,28.76,35,9.47-5.13,24.52-4,19.27,1.24s-16.23,1.43-16.23,1.43c31.53,34.11,63.47,10.89,63.47,10.89,4,7.87,10.38,53.79,10.38,53.79l1.38-2.86a490,490,0,0,0-8.72-51.59c55.87-11.32,41-68.91,41-68.91s-3.5,12.06-13.2,14.77c-13.12,3.66-9-8.7-3.43-14.61s16.44-6.12,16.44-6.12c3.22-30.21-16.24-59.17-16.24-59.17s1.63,33.07-10.4,29.68,6.92-35.4,6.92-35.4c-26.64-24.82-44.82-27.76-44.82-27.76s15.54,24.85,8.8,32S108.65,581.25,108,566s-4.73-20.64-4.73-20.64c-12-4.72-33.74-6.71-33.74-6.71s8.56,14.31,2.31,16.1S67,537.7,67,537.7l-18.85-5.59c-4,7.16-10.06,24.82-10.06,24.82s22.53,8.54,15.67,14.85-15.08-9.16-15.08-9.16c-8.79,16.13-7.07,39-7.07,39,22.78-2.15,36.83,15.38,23.47,19.73s-25-14.63-25-14.63c-9.38,29.09,5,55.23,5,55.23S74.92,652.63,78.32,667.06ZM128,644.59c1.26-3.63,4.68-6.7,8.11-8.78a4.9,4.9,0,0,1,1.3-1.09,8.19,8.19,0,0,1,5.1-1,3.78,3.78,0,0,1,3.21,4.15c-.25,3.16-3.37,5.86-5.65,7.71-2.62,2.13-5.63,4.13-9.1,4.12C128.38,649.66,127.26,646.6,128,644.59Zm-6.39-48.67a4.06,4.06,0,0,1,2.16-2.76c4.3-2.24,8.2.77,8.82,5.17.49,3.41-.22,7.67-2.73,10.18-3.63,3.63-8.21.87-9.42-3.37C119.56,602.21,119.73,598.49,121.56,595.92Zm-48.41,1.65a4.17,4.17,0,0,1-4.68,3c-1.79-.29-3.09-1.67-4.28-2.92a28.34,28.34,0,0,0-3.2-3.19,45.55,45.55,0,0,0-6.22-4.16c-1.53-.88-1.79-3.1-1.08-4.62a3.67,3.67,0,0,1,3.94-2.94,21.23,21.23,0,0,1,10.89,4.1C71.61,589.24,74.38,593.51,73.15,597.57Z" transform="translate(-26.98 -69.47)"/><rect class="cls-6" x="86.71" y="688.88" width="91.76" height="176.19"/><g class="cls-15"><rect class="cls-11" x="113.99" y="688.88" width="2.16" height="176.19"/></g><g class="cls-15"><rect class="cls-11" x="146.88" y="688.88" width="2.16" height="176.19"/></g></svg>