<svg id="Laag_1" xmlns="http://www.w3.org/2000/svg" viewBox="0 0 743.88 898.77"><defs><style>.cls-1{fill:#f4a5a7;}.cls-2{fill:#154899;}.cls-3{fill:#2e286d;}.cls-4{fill:#412683;}.cls-5{fill:#2b52a0;}.cls-6{fill:#eb5a35;}.cls-7{fill:#ee756e;}.cls-8{fill:#ed6a6c;}.cls-9{fill:#524b9a;}.cls-10{fill:#29275e;}.cls-11{fill:#6256a1;}.cls-12{fill:#c6d2ed;}.cls-13{fill:#b4c1e4;}.cls-14{fill:#323d8c;}.cls-15,.cls-16{fill:#fff;}.cls-16{opacity:0.3;}.cls-17{fill:#9085bf;}.cls-18{fill:#d7def2;}.cls-19{fill:#eaf0fa;}</style></defs><title>henv-client-highlight-3</title><path class="cls-1" d="M261.34,872.52s7.63,34.32,17.16,38.9,3.66,8.78-7.13,5.16-24.14-22.36-24.14-30.92S261.34,872.52,261.34,872.52Z" transform="translate(-111.14 -42.4)"/><path class="cls-1" d="M429.53,893.86s2.26,18.4-9,25.19-19.7,16.15-12.27,16.47,22.6-8.72,27.77-8.72,12.92,4.52,15.18,2.26-.33-.5-3.23-17-2.59-18.16-2.59-18.16Z" transform="translate(-111.14 -42.4)"/><path class="cls-1" d="M240.91,891.59s-2.83,35.85-2.83,41.57,3.81,1.9,7.24-8.39,8.77,16.78,30.13,16.39S301,930.49,288,927.82s-27.83-22.88-30.5-36.23S240.91,891.59,240.91,891.59Z" transform="translate(-111.14 -42.4)"/><path class="cls-2" d="M354,518.62c1.68,9.21,16.74,123.83,10,175.7S321.32,828.6,257.74,877.13l-6.69-28s35.14-41.83,44.34-84.5S292.88,624,287,617.35s10-110.44,10-110.44Z" transform="translate(-111.14 -42.4)"/><path class="cls-3" d="M384.63,518.43c0,5.76,5.48,106.68,20.84,244.89s15.36,130.54,15.36,130.54,26.33,2.35,29.62.08,23.41-387,23.41-387Z" transform="translate(-111.14 -42.4)"/><path class="cls-1" d="M496.84,893.86s2.41,19.59-9.62,26.8-21,17.19-13.06,17.53,24.06-9.28,29.56-9.28,13.74,4.81,16.15,2.41-.35-.54-3.44-18.14-2.75-19.32-2.75-19.32Z" transform="translate(-111.14 -42.4)"/><path class="cls-4" d="M439,532.61S482.8,831.44,490.6,894.93c0,0,19.1,1.21,27.4,0,0,0,38.42-295.19,32.84-365.17S439,532.61,439,532.61Z" transform="translate(-111.14 -42.4)"/><path class="cls-5" d="M215.91,518.62c-2.51,22.59,11.24,312.91,23.61,374.82,0,0,1.49,3.35,18.22,0l56.89-374.82Z" transform="translate(-111.14 -42.4)"/><path class="cls-6" d="M365.7,400.94c1.11-27.33,29.19-121.5,92.94-124.75S566.46,317.41,580.4,380c10.85,48.7,1.12,77.53-13.38,104.86,0,0,2.79,45.18-2.79,48.53s-153.77,8.36-172.42,7.25-24.9-47.41-23.78-84.78S365.7,400.94,365.7,400.94Z" transform="translate(-111.14 -42.4)"/><path class="cls-7" d="M379.18,461.48c0-.55-1.7-55.9,10.77-86.87l1.63.65c-12.34,30.63-10.66,85.61-10.64,86.16Z" transform="translate(-111.14 -42.4)"/><path class="cls-1" d="M399.53,523s16.09,26.55,15.05,36.11-7.63,12-8.67,10.6-.34-4.16-.34-4.16-3.52,6.61-5.06,4.52,0-4.52,0-4.52-6.73,4.5-5.69-.7,4-5.89-.11-14.21S385,539,385,539Z" transform="translate(-111.14 -42.4)"/><path class="cls-8" d="M401.34,526.12c-1.1-1.93-1.81-3.1-1.81-3.1L385,539s5.59,3.33,9.72,11.65,1.15,9,.11,14.21,5.69.7,5.69.7-1.53,2.42,0,4.52c.47.63,1.12.46,1.8-.08.33-2.6-2.06-7.15-2.5-11.78-.71-7.35-5.42-12.83-4.86-20.08C395.42,532,397.28,530.86,401.34,526.12Z" transform="translate(-111.14 -42.4)"/><path class="cls-9" d="M364.41,410.7S397,517.37,399.55,522s-14.22,17.57-14.22,17.57-22.59-18-35.56-38.49S364.41,410.7,364.41,410.7Z" transform="translate(-111.14 -42.4)"/><path class="cls-10" d="M367.9,392.85c-1.12-6.69-11.16-66.93-6.7-111.55s-33-111-69.87-82.55c0,0-37.77-14-57.43,19.29s-6.28,49-19.25,67.72-29.7,25.38-41,47.55-3.77,46.43-15.48,71.53S78.89,493.53,130,542.05s148.47-64.42,148.47-64.42Z" transform="translate(-111.14 -42.4)"/><path class="cls-11" d="M315.47,303.61c-32.66-7.71-92.87-.84-121.32,58.56s-41.83,111.28,20.08,121.32c0,0-11.71,41,1.68,44.34s133.86,1.67,139.72,0,13.11-99,12.27-120C367.38,395.09,375.71,317.83,315.47,303.61Z" transform="translate(-111.14 -42.4)"/><polygon class="cls-12" points="172.12 414.78 194.86 338.96 254.56 339.85 256.89 342.37 172.12 414.78"/><path class="cls-5" d="M449.89,218s-20.64-14.41-15.06-33.24c3.27-11,15.06-11.71,15.06-11.71s-5.35-44.74,27.33-41.83c23.52,2.09,12.65,27.89,12.65,27.89s8.58-1,13.15,4.32c7.73,9,2.09,15.76,2.09,15.76s7.31,2.22,7.81,8.92c.55,7.55-3.74,11.64-3.74,11.64s8,.05,8.76,11.23c1.25,17.55-15.62,22.59-15.62,22.59s-6.7,20.84-25,20.84C462.3,254.45,449.89,218,449.89,218Z" transform="translate(-111.14 -42.4)"/><path class="cls-1" d="M322.16,242.33c-.12,0-.23,0-.35,0-2.05-17.77-13-31.34-26.21-31.34-14.66,0-26.55,16.73-26.55,37.37,0,.56,0,1.12,0,1.67a6.07,6.07,0,0,0,0,12.13,6,6,0,0,0,1.75-.29c2.84,10.3,8.83,18.39,16.3,21.92-.38,9.45-1.77,28.12-6.82,39-7,15.06,7.53,19.24,19.24,18.41s20.92-4.19,13.39-28.17c-3.89-12.38-6.58-22.58-8.28-29.57,8.9-4.56,15.58-15.62,17.13-29.1.12,0,.23,0,.35,0a6.06,6.06,0,1,0,0-12.12Z" transform="translate(-111.14 -42.4)"/><path class="cls-1" d="M496.6,222.73c0-17-9.11-31.12-22.09-32.75-13.43-1.68-26.22,10.63-29.93,28.07h-.13c-3,0-5.44,2.7-5.44,6a5.87,5.87,0,0,0,4.55,5.93c.57,14.3,7.67,26.2,18,29.81-1.48,9.74-5,30.23-9.69,39.61-6.27,12.55,2.09,18,15.9,18s22.59-8,15.06-27.19a83.76,83.76,0,0,1-5.7-31.36c8.26-3.88,15.1-12.85,18-24.28l.2,0c3,0,5.43-2.7,5.43-6A5.93,5.93,0,0,0,496.6,222.73Z" transform="translate(-111.14 -42.4)"/><path class="cls-8" d="M321.81,254.42c.12,0,.23,0,.35,0a6.06,6.06,0,1,0,0-12.12c-.12,0-.23,0-.35,0-2.05-17.77-13-31.34-26.21-31.34a18.77,18.77,0,0,0-3.09.26c5,1.32,13.34,6.71,18.5,14.1,7.41,10.62,6.69,23.43,6.69,23.43a38.75,38.75,0,0,1-1,12.83c-3.06,11.29-12.69,20.21-19.94,21.05s-3.83,1.4-1.15,1.54,6.73,2.92,9.24,11.57,7.81,26.91,6.55,33.74-16.59,11.77-16.59,11.77h0a39.37,39.37,0,0,0,4.74-.05c11.71-.84,20.92-4.19,13.39-28.17-3.89-12.38-6.58-22.58-8.28-29.57C313.58,279,320.26,267.9,321.81,254.42Z" transform="translate(-111.14 -42.4)"/><polygon class="cls-13" points="177.13 408.86 197.24 341.52 256.89 342.37 229.57 428.75 174.77 427.98 177.13 408.86"/><path class="cls-14" d="M278.5,911.42c-3.71-1.78-7.13-8.08-9.93-15.1-1.92,8-13.08-1.08-13.08-1.08a27.51,27.51,0,0,0-.74,7c4.75,6.48,11,12.41,16.62,14.3C282.16,920.2,288,916,278.5,911.42Z" transform="translate(-111.14 -42.4)"/><path class="cls-8" d="M500.74,228.57a5.93,5.93,0,0,0-4.14-5.84c0-17-9.11-31.12-22.09-32.75a20,20,0,0,0-5.41.09c3.06,1.41,16.27,5.82,19.34,14.4,4,11.08,3.35,23.42,3.35,23.42s-.84,11.92-8,19.66-17.15,11.72-17.15,11.72,5.65-1.26,6.9,6.48,2.72,20.5,5.23,26.56.59,24.54-16.11,24.83a44.41,44.41,0,0,0,5,.27c13.8,0,22.59-8,15.06-27.19a83.76,83.76,0,0,1-5.7-31.36c8.26-3.88,15.1-12.85,18-24.28l.2,0C498.31,234.6,500.74,231.9,500.74,228.57Z" transform="translate(-111.14 -42.4)"/><path class="cls-1" d="M273.13,469.87s13.79-21.53,15.14-18.61-.2,8.59-.2,8.59,18.81-12,21.5-11.51,0,4.26,0,4.26,4.93-1.56,5.38-.44-1.12,4.93-1.12,4.93,2.46.21,2.46,2-14.6,26.69-43.51,21.76Z" transform="translate(-111.14 -42.4)"/><path class="cls-7" d="M438.14,532.73C426.26,451.19,455.71,334.64,456,333.47l1.7.44c-.3,1.16-29.67,117.38-17.83,198.57Z" transform="translate(-111.14 -42.4)"/><path class="cls-15" d="M280.11,266.63a12.1,12.1,0,1,1,12.1-12.1A12.11,12.11,0,0,1,280.11,266.63Zm0-22.44a10.34,10.34,0,1,0,10.35,10.34A10.35,10.35,0,0,0,280.11,244.19Z" transform="translate(-111.14 -42.4)"/><path class="cls-15" d="M312.49,261.66a12.1,12.1,0,1,1,12.1-12.09A12.11,12.11,0,0,1,312.49,261.66Zm0-22.43a10.34,10.34,0,1,0,10.35,10.34A10.35,10.35,0,0,0,312.49,239.23Z" transform="translate(-111.14 -42.4)"/><path class="cls-8" d="M316.29,459.1c0-1.8-2.46-2-2.46-2s1.57-3.81,1.12-4.93c-.18-.46-1.09-.47-2.11-.32a13,13,0,0,1-3.27.76c-5.39.45-.52,4.95-1.2,8.85s-4.34,7.81-17.44,13.67c-8,3.56-14.28,2.79-18,1.64l-.13,4.1C301.69,485.79,316.29,460.9,316.29,459.1Z" transform="translate(-111.14 -42.4)"/><path class="cls-15" d="M291.84,251.89l-1-1.43c.22-.16,5.5-3.84,10.78-1.7l-.66,1.62C296.58,248.6,291.88,251.85,291.84,251.89Z" transform="translate(-111.14 -42.4)"/><path class="cls-1" d="M467.51,493.8s-32.22,4.88-30.27,7.59-9.13,2.21-4.27,5.15-7.61,5-2.45,7.25-4.06,2,3.8,4.13,39-2.62,39.54-5.65S467.51,493.8,467.51,493.8Z" transform="translate(-111.14 -42.4)"/><path class="cls-8" d="M462.55,494.6c3.62,5.62,8.13,14.23,3.23,16.49-6,2.76-25,3-34.35,3.16,3,1.74-4.38,1.66,2.89,3.67,7.86,2.16,39-2.62,39.54-5.65s-6.35-18.47-6.35-18.47S465.51,494.11,462.55,494.6Z" transform="translate(-111.14 -42.4)"/><path class="cls-15" d="M454.67,231.86a27.75,27.75,0,0,1-3.24-.2c-6.62-.83-11.33-3.74-10.95-6.77.19-1.56,1.68-2.8,4.17-3.49a21.52,21.52,0,0,1,8.1-.38c6.62.83,11.33,3.74,10.95,6.77-.19,1.56-1.68,2.8-4.17,3.49A18.61,18.61,0,0,1,454.67,231.86Zm-5.17-9.29a16.65,16.65,0,0,0-4.38.52c-1.72.47-2.8,1.23-2.9,2-.21,1.69,3.77,4.1,9.42,4.81a20,20,0,0,0,7.42-.33c1.72-.47,2.8-1.23,2.9-2,.21-1.69-3.77-4.1-9.42-4.81A24.56,24.56,0,0,0,449.5,222.57Z" transform="translate(-111.14 -42.4)"/><path class="cls-15" d="M485.43,236.53a25.72,25.72,0,0,1-3.24-.2c-6.62-.83-11.33-3.74-11-6.77s5.66-4.7,12.28-3.87,11.33,3.74,10.95,6.77c-.19,1.56-1.68,2.8-4.17,3.49A18.61,18.61,0,0,1,485.43,236.53Zm-5.13-9.29c-4.16,0-7.15,1.16-7.33,2.54-.21,1.69,3.78,4.1,9.43,4.81a19.82,19.82,0,0,0,7.42-.33c1.72-.47,2.8-1.23,2.9-2,.21-1.69-3.77-4.1-9.43-4.81A24.13,24.13,0,0,0,480.3,227.24Z" transform="translate(-111.14 -42.4)"/><path class="cls-16" d="M291.33,254.53a11.22,11.22,0,1,1-11.22-11.22A11.22,11.22,0,0,1,291.33,254.53Z" transform="translate(-111.14 -42.4)"/><path class="cls-16" d="M323.71,249.57a11.22,11.22,0,1,1-11.22-11.22A11.22,11.22,0,0,1,323.71,249.57Z" transform="translate(-111.14 -42.4)"/><path class="cls-16" d="M462.83,227.68c-.3,2.46-5.36,3.85-11.3,3.11S441,227.46,441.35,225s5.36-3.85,11.29-3.11S463.14,225.22,462.83,227.68Z" transform="translate(-111.14 -42.4)"/><path class="cls-16" d="M493.59,232.35c-.3,2.46-5.36,3.85-11.3,3.11s-10.49-3.33-10.19-5.79,5.37-3.85,11.3-3.11S493.9,229.89,493.59,232.35Z" transform="translate(-111.14 -42.4)"/><path class="cls-15" d="M471.47,230.27c-3.42-3.61-8.12-1.85-8.32-1.77l-.64-1.64c.24-.09,6-2.28,10.23,2.21Z" transform="translate(-111.14 -42.4)"/><path class="cls-17" d="M241.24,486c-17.44,0-27-1.59-27.15-1.61l.29-1.73c.21,0,21.17,3.51,57.81.08-.5-3.12-1.9-13-.24-17.78-5.41-1-28-6-37.57-23.12-10.59-18.95-10.15-49.22-10.15-49.52l1.76,0c0,.3-.43,30.1,9.92,48.64,10.26,18.35,37.15,22.39,37.42,22.43l1.31.18-.68,1.13c-2,3.43-.61,14.62.11,18.64l.17.94-.95.09C260.76,485.56,250,486,241.24,486Z" transform="translate(-111.14 -42.4)"/><path class="cls-7" d="M492.34,515.19a102.54,102.54,0,0,1-18.66-1.52l-.51-.1-6.92-23.07.75-.3c.28-.11,28.34-11.44,41.41-31.87s9.53-68,9.49-68.48l1.74-.14c.16,2,3.64,48.64-9.75,69.57-12.17,19-36.91,30.27-41.51,32.24l6.16,20.53c5.61,1,56.24,8.87,91.85-27.78l1.26,1.22C543.25,510.6,511.94,515.19,492.34,515.19Z" transform="translate(-111.14 -42.4)"/><path class="cls-14" d="M288,927.82c-5.47-1.13-11.29-5.39-16.38-10.94.94,1.1,3.54,4.9-4.92,5.47-6.12.41-18.36-6.65-27.19-12.72-.72,9.84-1.46,20.61-1.46,23.53,0,5.72,3.81,1.9,7.24-8.39s8.77,16.78,30.13,16.39S301,930.49,288,927.82Z" transform="translate(-111.14 -42.4)"/><path class="cls-14" d="M437.19,917.05a15.83,15.83,0,0,1-11.71-2.79,15.79,15.79,0,0,1-5,4.79c-11.3,6.78-19.7,16.15-12.27,16.47s22.6-8.72,27.77-8.72,12.92,4.52,15.18,2.26-.33-.5-3.23-17c-.22-1.22-.41-2.35-.59-3.42h0A12,12,0,0,1,437.19,917.05Z" transform="translate(-111.14 -42.4)"/><path class="cls-14" d="M516.36,912.79a26.72,26.72,0,0,1-5.94,3.24c-5.34,2.26-12.57.65-17.54-1a17,17,0,0,1-5.66,5.64c-12,7.22-21,17.19-13.06,17.53s24.06-9.28,29.56-9.28,13.74,4.81,16.15,2.41-.35-.54-3.44-18.14C516.41,913.05,516.39,912.92,516.36,912.79Z" transform="translate(-111.14 -42.4)"/><path class="cls-13" d="M631.07,804.48S586.74,706.21,610.63,721c35.91,22.19,24.52-2.92,14.6-26.86S618.8,625.2,634,647.39s12.26,40.88,19.85,30.37S636.32,567.39,666.1,572.64s0,77.53,11.1,84.9,21-28.84,35.62-18.32-40.88,51.39-36.2,70.07,23.94-15.18,33.87-1.17-29.32,24.56-42,33.87c-23.94,17.52.16,11.65,12.26,9.35,12.27-2.34-.1,14.6-15.76,24.52s-28.62,28.62-28.62,28.62Z" transform="translate(-111.14 -42.4)"/><path class="cls-18" d="M620.51,808.52c.25-3.49-.47-91.95-13-89.32s-6.49,33.49-15.1,22.92-12.2-99.81-31.55-99.43,2,39.37-9,36.82-35.81-24.21-41-8.19,35.87,30.66,35.33,38.23-33.41.54-29.7,22.47,43.9,4.3,48.87,10.51S539.08,760,548,775.25s22.25-8.37,39.06,2.2,27.09,30.61,27.09,30.61Z" transform="translate(-111.14 -42.4)"/><path class="cls-18" d="M659.42,804.48s3.18-42.63,14.86-43.21-.58,9.34,6.42,14.59,11.1-46.71,25.11-42,1.76,20.44,0,29.2,13.44-2.64,16.35,6-46.71,21.46-51.38,35.48S659.42,804.48,659.42,804.48Z" transform="translate(-111.14 -42.4)"/><polygon class="cls-13" points="483.72 762.08 504.75 875.99 548.54 875.99 566.06 762.08 483.72 762.08"/><rect class="cls-13" x="525.77" y="414.18" width="218.11" height="11.54"/><rect class="cls-18" x="544.6" y="322.35" width="19.27" height="91.83"/><rect class="cls-15" x="563.87" y="362.64" width="16.2" height="51.54"/><rect class="cls-18" x="592.78" y="330.67" width="59.13" height="83.51"/><rect class="cls-13" x="601.05" y="340.45" width="42.59" height="66.01"/><path class="cls-18" d="M741.61,405.9a8.79,8.79,0,1,1-8.79-8.79A8.79,8.79,0,0,1,741.61,405.9Z" transform="translate(-111.14 -42.4)"/><path class="cls-18" d="M724,440.52s.9-25.84,8.78-25.84,9.91,25.84,9.91,25.84Z" transform="translate(-111.14 -42.4)"/><polygon class="cls-18" points="667.24 414.18 683 322.35 676.87 310.05 694.83 310.05 690.01 322.35 715.41 414.18 667.24 414.18"/><path class="cls-13" d="M797.21,352.53c-.18-2.15-4.15-52.79,20.12-67.8l.92,1.49c-23.36,14.45-19.34,65.64-19.3,66.16Z" transform="translate(-111.14 -42.4)"/><path class="cls-13" d="M793.89,312.61c4.16,3.51,6.61,7.44,5.48,8.79s-5.42-.42-9.58-3.93-6.61-7.44-5.48-8.78S789.73,309.11,793.89,312.61Z" transform="translate(-111.14 -42.4)"/><path class="cls-13" d="M806.94,322.19c5.25-1.43,9.88-1.22,10.35.47s-3.42,4.22-8.68,5.66-9.88,1.22-10.34-.47S801.69,323.62,806.94,322.19Z" transform="translate(-111.14 -42.4)"/><path class="cls-13" d="M797.92,298.92c3.42,4.24,5.08,8.57,3.72,9.67s-5.24-1.44-8.66-5.68-5.08-8.56-3.71-9.66S794.51,294.69,797.92,298.92Z" transform="translate(-111.14 -42.4)"/><path class="cls-13" d="M823.83,282c-3.51,4.16-7.44,6.62-8.78,5.49s.42-5.42,3.93-9.58,7.44-6.62,8.78-5.49S827.34,277.87,823.83,282Z" transform="translate(-111.14 -42.4)"/><path class="cls-13" d="M815,301.63c-4.91-.57-8.74-2.33-8.55-3.91s4.31-2.39,9.22-1.81,8.74,2.33,8.55,3.91S819.86,302.21,815,301.63Z" transform="translate(-111.14 -42.4)"/><circle class="cls-13" cx="542.41" cy="160.74" r="63.45"/><circle class="cls-18" cx="542.41" cy="160.74" r="54.14"/><rect class="cls-13" x="538.47" y="115.63" width="3.94" height="45.11"/><rect class="cls-13" x="648.18" y="192.52" width="38.43" height="4.6" transform="translate(1231.66 -12.57) rotate(150)"/><rect class="cls-18" x="194.07" width="135.61" height="99.42" rx="11.92" ry="11.92"/><polygon class="cls-18" points="255.1 99 250.72 131.08 278.35 99 255.1 99"/><path class="cls-18" d="M634.46,804.91l-1.53-.86c4.84-8.55,31.18-126.75,31.44-127.94l1.71.38C665,681.37,639.43,796.14,634.46,804.91Z" transform="translate(-111.14 -42.4)"/><path class="cls-18" d="M654.41,727.7l-1.74-.21c2-16-13.49-27.3-13.65-27.41l1-1.43C640.72,699.13,656.49,710.65,654.41,727.7Z" transform="translate(-111.14 -42.4)"/><path class="cls-18" d="M651.22,741l-1.34-1.12c.44-.53,10.89-13,20.72-15.08l.35,1.71C661.72,728.38,651.33,740.82,651.22,741Z" transform="translate(-111.14 -42.4)"/><path class="cls-18" d="M642.19,778.45l-1.75-.05c.3-13-13.15-31.32-13.29-31.5l1.41-1C629.13,746.62,642.51,764.8,642.19,778.45Z" transform="translate(-111.14 -42.4)"/><path class="cls-13" d="M664.07,805.13l-1.18-1.3c.29-.26,29.09-26.66,34.21-41.71l1.66.56C693.49,778.16,665.27,804,664.07,805.13Z" transform="translate(-111.14 -42.4)"/><path class="cls-13" d="M676.25,793l-1.67-.53c1.31-4.06-2.73-17.11-4.22-18.18l.81-1.55C673.61,774,677.7,788.49,676.25,793Z" transform="translate(-111.14 -42.4)"/><path class="cls-13" d="M686.54,781.58l-.78-1.57c.42-.21,10.3-5,18-5v1.75C696.47,776.74,686.63,781.53,686.54,781.58Z" transform="translate(-111.14 -42.4)"/><path class="cls-15" d="M616.78,804.68C608.45,769,548.45,693.5,545.82,691l1.1-1.36c.54.41,62.92,77.7,71.57,114.67Z" transform="translate(-111.14 -42.4)"/><path class="cls-15" d="M566.84,718.21c-4.8-11.75,1.25-27.55,1.51-28.21l1.63.63c-.06.16-6.05,15.82-1.51,26.92Z" transform="translate(-111.14 -42.4)"/><path class="cls-15" d="M579.73,736.3c-14.28-12.85-37.78-4.95-38-4.86l-.57-1.66c1-.35,24.71-8.33,39.76,5.22Z" transform="translate(-111.14 -42.4)"/><path class="cls-15" d="M600.91,769.24c-.39-8.86,5.49-19.62,5.74-20.08l1.53.85c-.06.11-5.89,10.79-5.52,19.15Z" transform="translate(-111.14 -42.4)"/><path class="cls-15" d="M569.5,760.2l-.67-1.62c.65-.27,16-6.64,25.48-3.07l-.62,1.63C584.92,753.83,569.66,760.14,569.5,760.2Z" transform="translate(-111.14 -42.4)"/><path class="cls-13" d="M391.47,89.11A18.1,18.1,0,1,1,373.37,71,18.09,18.09,0,0,1,391.47,89.11Z" transform="translate(-111.14 -42.4)"/><rect class="cls-13" x="251.27" y="59.93" width="21.93" height="7.98" rx="0.96" ry="0.96"/><rect class="cls-13" x="251.27" y="69.9" width="21.93" height="2.22" rx="0.27" ry="0.27"/><rect class="cls-13" x="251.27" y="74.22" width="21.93" height="2.22" rx="0.27" ry="0.27"/><rect class="cls-13" x="251.27" y="78.11" width="21.93" height="2.22" rx="0.27" ry="0.27"/><rect class="cls-13" x="255.76" y="81.76" width="12.95" height="3.46" rx="0.42" ry="0.42"/><path class="cls-19" d="M370.49,110.52l-1.72-.43.86.22-.87-.17a98.24,98.24,0,0,0-1.32-16.67c-2.85-.84-4.29-2.36-4.44-3.9a2.44,2.44,0,0,1,2.19-2.63,2.06,2.06,0,0,1,1.92.73A10.28,10.28,0,0,1,368.92,92a21.91,21.91,0,0,0,8.13-.05c.34-2.1.83-3.75,1.53-4.46a1.74,1.74,0,0,1,1.28-.57,2.64,2.64,0,0,1,2.76,2.55c0,1.4-1.12,3-4,3.9a123,123,0,0,0-.36,16.89l-1.77.07a130.24,130.24,0,0,1,.31-16.52,25.24,25.24,0,0,1-7.5.07A93.09,93.09,0,0,1,370.49,110.52Zm-5-21.84h0c-.3,0-.78.21-.73.71s.69,1.37,2.19,2a6,6,0,0,0-1.19-2.58C365.64,88.7,365.56,88.68,365.52,88.68Zm14.31,0c-.36.2-.67,1.15-.93,2.67,1.37-.59,2-1.34,2-1.9S380.44,88.72,379.83,88.71Z" transform="translate(-111.14 -42.4)"/><rect class="cls-13" x="343.26" y="75.74" width="4.14" height="12.05" rx="0.5" ry="0.5" transform="translate(-42.46 261.63) rotate(-52.1)"/><rect class="cls-13" x="398.54" y="75.74" width="4.14" height="12.05" rx="0.5" ry="0.5" transform="translate(471.04 405.71) rotate(-127.9)"/><rect class="cls-13" x="384.08" y="58.18" width="4.14" height="12.05" rx="0.5" ry="0.5" transform="translate(577.33 270.48) rotate(-150)"/><rect class="cls-13" x="358.53" y="58.18" width="4.14" height="12.05" rx="0.5" ry="0.5" transform="translate(-94.93 146.49) rotate(-30)"/></svg>